<svg data-name="Group 17093" xmlns="http://www.w3.org/2000/svg" width="85.012" height="59.745" viewBox="0 0 85.012 59.745">
    <defs>
        <clipPath id="vm8xdys9ja">
            <path data-name="Rectangle 6882" style="fill:none" d="M0 0h85.012v59.745H0z"/>
        </clipPath>
        <clipPath id="2ywfkjmc0b">
            <path data-name="Rectangle 6873" style="fill:none" d="M0 0h10.172v10.172H0z"/>
        </clipPath>
        <clipPath id="g49avw4wac">
            <path data-name="Rectangle 6874" style="fill:none" d="M0 0h1.929v1.929H0z"/>
        </clipPath>
        <clipPath id="a5kqercsxd">
            <path data-name="Path 17185" d="M203.03 24.978a1.159 1.159 0 0 0-1.156 1.157v11a1.158 1.158 0 0 0 1.156 1.156h10.291a1.117 1.117 0 0 1 .827.348l2.685 2.746a1.118 1.118 0 0 0 .827.348h6.664a1.156 1.156 0 0 0 1.066-1.6l-6.053-14.44a1.136 1.136 0 0 0-1.066-.709z" transform="translate(-201.874 -24.978)" style="fill:none"/>
        </clipPath>
        <clipPath id="3gqhk140ke">
            <path data-name="Rectangle 6880" style="fill:none" d="M0 0h23.052v6.491H0z"/>
        </clipPath>
    </defs>
    <g data-name="Group 17073" style="clip-path:url(#vm8xdys9ja)">
        <g data-name="Group 17065">
            <g data-name="Group 17064" style="clip-path:url(#vm8xdys9ja)">
                <path data-name="Path 17144" d="M4.844 0h51.7a1 1 0 0 1 .994.994v36.713a1 1 0 0 1-.994.994h-51.7a1 1 0 0 1-.994-.994V.994A1 1 0 0 1 4.844 0" transform="translate(-2.742)" style="fill-rule:evenodd;fill:#ca0007"/>
                <path data-name="Path 17145" d="M9.275 7.879h50.571V5.425H9.275zm0 5.966h50.571V8.721H9.275zm0 5.966h50.571v-5.124H9.275zm0 5.966h50.571v-5.125H9.275zm0 5.966h50.571v-5.125H9.275zm0 5.966h50.571v-5.125H9.275zm0 3.3h50.571V38.55H9.275z" transform="translate(-6.606 -3.864)" style="fill:#a11211;fill-rule:evenodd"/>
                <path data-name="Rectangle 6872" d="M.19 39.773h56.293v2.142H.19z"/>
                <path data-name="Path 17146" d="M195.2 17.544h19.2a1.136 1.136 0 0 1 1.066.709l7.95 18.962a1.106 1.106 0 0 1 .09.447v24.55a.767.767 0 0 1-.765.765h-3.251a9.9 9.9 0 0 0-19.81 0h-4.48a.767.767 0 0 1-.765-.765v-43.9a.767.767 0 0 1 .765-.765" transform="translate(-138.492 -12.496)" style="fill-rule:evenodd;fill:#ca0007"/>
                <path data-name="Path 17147" d="M199.463 24.417a1.853 1.853 0 0 1 1.85-1.85h15.24a1.83 1.83 0 0 1 1.707 1.133l6.053 14.44a1.85 1.85 0 0 1-1.706 2.565h-6.664a1.811 1.811 0 0 1-1.323-.557l-2.685-2.748a.426.426 0 0 0-.331-.139h-10.291a1.853 1.853 0 0 1-1.85-1.85z" transform="translate(-142.07 -16.074)" style="fill:#a11211;fill-rule:evenodd"/>
                <path data-name="Path 17148" d="M201.874 26.134v11a1.158 1.158 0 0 0 1.156 1.156h10.291a1.118 1.118 0 0 1 .827.348l2.685 2.746a1.118 1.118 0 0 0 .827.348h6.664a1.156 1.156 0 0 0 1.066-1.6l-6.053-14.44a1.136 1.136 0 0 0-1.066-.709H203.03a1.159 1.159 0 0 0-1.156 1.156" transform="translate(-143.787 -17.791)" style="fill:#fff;fill-rule:evenodd"/>
                <path data-name="Path 17149" d="M203.055 86.06v19.653a1.158 1.158 0 0 0 .608 1.017 12.776 12.776 0 0 1 22.734-2.788V89.5a1.159 1.159 0 0 0-1.156-1.156h-7.4a1.118 1.118 0 0 1-.827-.348l-2.685-2.746a1.116 1.116 0 0 0-.827-.348h-9.295a1.159 1.159 0 0 0-1.156 1.156" transform="translate(-144.628 -60.474)" style="fill:#a11211;fill-rule:evenodd"/>
                <path data-name="Path 17150" d="M289.769 97.72h-1.874a.422.422 0 0 0-.421.421v15.565a.422.422 0 0 0 .421.421h1.874z" transform="translate(-204.756 -69.602)" style="fill-rule:evenodd"/>
                <path data-name="Path 17151" d="M291.662 101.541h-1.31a.221.221 0 0 0-.22.22v.516a.221.221 0 0 0 .22.22h1.31zm0 14.207v-.956h-1.31a.22.22 0 0 0-.22.22v.516a.221.221 0 0 0 .22.22zm0-1.472v-.956h-1.31a.221.221 0 0 0-.22.22v.516a.221.221 0 0 0 .22.22zm0-1.472v-.956h-1.31a.221.221 0 0 0-.22.22v.516a.221.221 0 0 0 .22.22zm0-1.472v-.956h-1.31a.221.221 0 0 0-.22.22v.516a.221.221 0 0 0 .22.22zm0-1.472v-.96h-1.31a.221.221 0 0 0-.22.22v.516a.221.221 0 0 0 .22.22zm0-1.472v-.956h-1.31a.221.221 0 0 0-.22.22v.516a.221.221 0 0 0 .22.22zm0-1.472v-.956h-1.31a.221.221 0 0 0-.22.22v.516a.221.221 0 0 0 .22.22zm0-1.472v-.956h-1.31a.221.221 0 0 0-.22.22v.516a.221.221 0 0 0 .22.22zm0-1.472v-.956h-1.31a.221.221 0 0 0-.22.22v.516a.221.221 0 0 0 .22.22z" transform="translate(-206.65 -72.324)" style="fill:#4e4e4e;fill-rule:evenodd"/>
                <path data-name="Path 17152" d="M210.252 90.41h2.524a.365.365 0 0 1 .363.363v.535a.365.365 0 0 1-.363.363h-2.524a.364.364 0 0 1-.363-.363v-.535a.364.364 0 0 1 .363-.363" transform="translate(-149.496 -64.395)" style="fill-rule:evenodd;fill:#ca0007"/>
                <path data-name="Path 17153" d="M292.207 108.6a4.1 4.1 0 0 0 0 6.009z" transform="translate(-207.194 -77.348)" style="fill:#eeb400;fill-rule:evenodd"/>
                <path data-name="Path 17154" d="M138.362 138.224h5.689a5 5 0 1 1 0 9.991h-5.689a5 5 0 1 1 0-9.991" transform="translate(-94.992 -98.451)" style="fill-rule:evenodd;fill:#ca0007"/>
                <path data-name="Path 17155" d="M151.177 138.224v9.991h-1.284c-.113 0-.226 0-.337-.012v-9.968a4.7 4.7 0 0 1 .337-.012zm3.122 0h1.283q.17 0 .337.012v9.964a5.365 5.365 0 0 1-.337.012H154.3z" transform="translate(-106.523 -98.451)" style="fill:#a11211;fill-rule:evenodd"/>
                <path data-name="Path 17156" d="M224.293 143.574a9.217 9.217 0 1 1-9.217 9.217 9.217 9.217 0 0 1 9.217-9.217m0 3.552a5.665 5.665 0 1 0 5.665 5.665 5.665 5.665 0 0 0-5.665-5.665" transform="translate(-153.19 -102.262)" style="fill:#111c3e;fill-rule:evenodd"/>
                <path data-name="Path 17157" d="M233.085 155.919a5.665 5.665 0 1 1-5.665 5.665 5.665 5.665 0 0 1 5.665-5.665m-2.028 3.052.814.814a2.158 2.158 0 0 1 .8-.332V158.3a3.294 3.294 0 0 0-1.614.669m.23 1.4-.814-.814a3.287 3.287 0 0 0-.669 1.614h1.152a2.151 2.151 0 0 1 .331-.8m-.332 1.631H229.8a3.291 3.291 0 0 0 .669 1.615l.814-.814a2.159 2.159 0 0 1-.332-.8m.916 1.385-.814.814a3.291 3.291 0 0 0 1.614.669v-1.152a2.157 2.157 0 0 1-.8-.332m1.627.332v1.152a3.289 3.289 0 0 0 1.614-.669l-.814-.814a2.155 2.155 0 0 1-.8.331m1.385-.916.814.814a3.288 3.288 0 0 0 .669-1.615h-1.152a2.159 2.159 0 0 1-.331.8m.332-1.627h1.152a3.292 3.292 0 0 0-.669-1.615l-.814.814a2.159 2.159 0 0 1 .332.8m-.916-1.385.814-.814a3.294 3.294 0 0 0-1.614-.669v1.152a2.16 2.16 0 0 1 .8.332" transform="translate(-161.982 -111.055)" style="fill:#90a1a1;fill-rule:evenodd"/>
                <g data-name="Group 17048" style="mix-blend-mode:multiply;isolation:isolate">
                    <g data-name="Group 17047">
                        <g data-name="Group 17046" style="clip-path:url(#2ywfkjmc0b)" transform="translate(66.016 45.442)">
                            <path data-name="Path 17158" d="M234.517 157.929a5.086 5.086 0 1 1-5.086 5.086 5.086 5.086 0 0 1 5.086-5.086m0 .8a4.287 4.287 0 1 0 4.287 4.287 4.287 4.287 0 0 0-4.287-4.287" transform="translate(-229.431 -157.929)" style="fill:#979797;fill-rule:evenodd"/>
                        </g>
                    </g>
                </g>
                <g data-name="Group 17051" style="mix-blend-mode:multiply;isolation:isolate">
                    <g data-name="Group 17050">
                        <g data-name="Group 17049" style="clip-path:url(#g49avw4wac)" transform="translate(70.138 49.564)">
                            <path data-name="Path 17159" d="M244.72 172.253a.965.965 0 1 1-.965.965.965.965 0 0 1 .965-.965" transform="translate(-243.755 -172.253)" style="fill:#979797;fill-rule:evenodd"/>
                        </g>
                    </g>
                </g>
                <path data-name="Path 17160" d="M74.728 143.574a9.217 9.217 0 1 1-9.217 9.217 9.217 9.217 0 0 1 9.217-9.217m0 3.552a5.665 5.665 0 1 0 5.665 5.665 5.665 5.665 0 0 0-5.665-5.665" transform="translate(-46.661 -102.262)" style="fill:#111c3e;fill-rule:evenodd"/>
                <path data-name="Path 17161" d="M83.52 155.919a5.665 5.665 0 1 1-5.665 5.665 5.665 5.665 0 0 1 5.665-5.665m-2.028 3.052.814.814a2.16 2.16 0 0 1 .8-.332V158.3a3.294 3.294 0 0 0-1.614.669m.23 1.4-.814-.814a3.289 3.289 0 0 0-.669 1.614h1.151a2.15 2.15 0 0 1 .331-.8M81.39 162h-1.152a3.291 3.291 0 0 0 .669 1.615l.814-.814a2.159 2.159 0 0 1-.332-.8m.916 1.385-.814.814a3.291 3.291 0 0 0 1.614.669v-1.152a2.159 2.159 0 0 1-.8-.332m1.627.332v1.152a3.289 3.289 0 0 0 1.615-.669l-.814-.814a2.154 2.154 0 0 1-.8.331m1.385-.916.814.814A3.288 3.288 0 0 0 86.8 162h-1.151a2.158 2.158 0 0 1-.331.8m.332-1.627h1.15a3.292 3.292 0 0 0-.669-1.615l-.814.814a2.159 2.159 0 0 1 .332.8m-.916-1.385.814-.814a3.294 3.294 0 0 0-1.615-.669v1.152a2.159 2.159 0 0 1 .8.332" transform="translate(-55.453 -111.055)" style="fill:#90a1a1;fill-rule:evenodd"/>
                <g data-name="Group 17054" style="mix-blend-mode:multiply;isolation:isolate">
                    <g data-name="Group 17053">
                        <g data-name="Group 17052" style="clip-path:url(#2ywfkjmc0b)" transform="translate(22.98 45.442)">
                            <path data-name="Path 17162" d="M84.952 157.929a5.086 5.086 0 1 1-5.086 5.086 5.086 5.086 0 0 1 5.086-5.086m0 .8a4.287 4.287 0 1 0 4.287 4.287 4.287 4.287 0 0 0-4.287-4.287" transform="translate(-79.866 -157.929)" style="fill:#979797;fill-rule:evenodd"/>
                        </g>
                    </g>
                </g>
                <g data-name="Group 17057" style="mix-blend-mode:multiply;isolation:isolate">
                    <g data-name="Group 17056">
                        <g data-name="Group 17055" style="clip-path:url(#g49avw4wac)" transform="translate(27.102 49.564)">
                            <path data-name="Path 17163" d="M95.155 172.253a.965.965 0 1 1-.965.965.965.965 0 0 1 .965-.965" transform="translate(-94.19 -172.253)" style="fill:#979797;fill-rule:evenodd"/>
                        </g>
                    </g>
                </g>
                <path data-name="Path 17164" d="M9.217 143.574A9.217 9.217 0 1 1 0 152.791a9.217 9.217 0 0 1 9.217-9.217m0 3.552a5.665 5.665 0 1 0 5.665 5.665 5.665 5.665 0 0 0-5.665-5.665" transform="translate(0 -102.262)" style="fill:#111c3e;fill-rule:evenodd"/>
                <path data-name="Path 17165" d="M18.009 155.919a5.665 5.665 0 1 1-5.665 5.665 5.665 5.665 0 0 1 5.665-5.665m-2.028 3.052.814.814a2.16 2.16 0 0 1 .8-.332V158.3a3.294 3.294 0 0 0-1.614.669m.23 1.4-.814-.814a3.289 3.289 0 0 0-.669 1.614h1.152a2.15 2.15 0 0 1 .331-.8M15.879 162h-1.152a3.291 3.291 0 0 0 .669 1.615l.814-.814a2.159 2.159 0 0 1-.332-.8m.916 1.385-.814.814a3.291 3.291 0 0 0 1.614.669v-1.152a2.159 2.159 0 0 1-.8-.332m1.627.332v1.152a3.289 3.289 0 0 0 1.615-.669l-.814-.814a2.154 2.154 0 0 1-.8.331m1.385-.916.814.814A3.288 3.288 0 0 0 21.29 162h-1.152a2.158 2.158 0 0 1-.331.8m.332-1.627h1.151a3.289 3.289 0 0 0-.669-1.615l-.814.814a2.159 2.159 0 0 1 .332.8m-.916-1.385.814-.814a3.294 3.294 0 0 0-1.615-.669v1.152a2.159 2.159 0 0 1 .8.332" transform="translate(-8.792 -111.055)" style="fill:#90a1a1;fill-rule:evenodd"/>
                <g data-name="Group 17060" style="mix-blend-mode:multiply;isolation:isolate">
                    <g data-name="Group 17059">
                        <g data-name="Group 17058" style="clip-path:url(#2ywfkjmc0b)" transform="translate(4.13 45.442)">
                            <path data-name="Path 17166" d="M19.44 157.929a5.086 5.086 0 1 1-5.086 5.086 5.086 5.086 0 0 1 5.086-5.086m0 .8a4.287 4.287 0 1 0 4.287 4.287 4.287 4.287 0 0 0-4.287-4.287" transform="translate(-14.354 -157.929)" style="fill:#979797;fill-rule:evenodd"/>
                        </g>
                    </g>
                </g>
                <g data-name="Group 17063" style="mix-blend-mode:multiply;isolation:isolate">
                    <g data-name="Group 17062">
                        <g data-name="Group 17061" style="clip-path:url(#g49avw4wac)" transform="translate(8.252 49.564)">
                            <path data-name="Path 17167" d="M29.644 172.253a.965.965 0 1 1-.965.965.965.965 0 0 1 .965-.965" transform="translate(-28.679 -172.253)" style="fill:#979797;fill-rule:evenodd"/>
                        </g>
                    </g>
                </g>
            </g>
        </g>
        <g data-name="Group 17067">
            <g data-name="Group 17066" style="clip-path:url(#a5kqercsxd)" transform="translate(58.087 7.187)">
                <path data-name="Path 17168" d="M231.346 68.579a1.976 1.976 0 0 0-.158-.642l-.506-1.367a17.722 17.722 0 0 0-.166-.436c-.076-.189-.16-.376-.243-.562l-.078-.174-.365-.814a.589.589 0 0 0-.16-.241.669.669 0 0 0-.49-.053 2.9 2.9 0 0 1-2.2-.673 6.5 6.5 0 0 0 .664 2.842A7.969 7.969 0 0 0 229 68.468a1.947 1.947 0 0 0 1.573.785c.437 0 .78-.191.772-.674" transform="translate(-219.753 -52.5)" style="fill:#7f1111"/>
                <path data-name="Path 17169" d="M227.51 42.074c.062.415.2.815.273 1.228a4.011 4.011 0 0 1-.277 2.3 2.219 2.219 0 0 1-1.234 1.277c-.3.1-.628.1-.937.182a1.972 1.972 0 0 0-1.347 1.241 8.822 8.822 0 0 1-2.645-1.565 9.106 9.106 0 0 0-.328-4.637.679.679 0 0 1-.022-.587.624.624 0 0 1 .294-.2 9.671 9.671 0 0 1 5.969-.488c.3.071.358.1.28.4a2.135 2.135 0 0 0-.026.859" transform="translate(-215.449 -36.074)" style="fill:#edb38c"/>
                <path data-name="Path 17170" d="M235.7 47.446a2.177 2.177 0 0 1 .61 1.486 4.325 4.325 0 0 1-.588 1.887 3.362 3.362 0 0 1-.519.838 1.137 1.137 0 0 1-.871.4 1.7 1.7 0 0 1-.981-.567l-.861-.807a.7.7 0 0 1-.254-.374.121.121 0 0 0 .175-.021.347.347 0 0 0 .057-.189c.042-.414.071-.829.092-1.244.007-.144-.04-.441.069-.554.09-.093.424-.119.551-.154l2.52-.7" transform="translate(-223.497 -40.981)" style="fill:#b7e2e1"/>
                <path data-name="Path 17171" d="M221.317 52a.075.075 0 0 0-.035.14c.031.018.084 0 .079-.045a.65.65 0 0 0-.137-.327c-.062-.077-.19-.208-.292-.119a.276.276 0 0 0-.021.323.762.762 0 0 0 .29.274c.051.033.105-.041.064-.082a.179.179 0 0 0-.265.036.461.461 0 0 0-.069.164.274.274 0 0 0 0 .162.163.163 0 0 0 .262.043.484.484 0 0 0 .1-.144l.115-.214c.032-.06-.058-.113-.091-.053l-.125.232c-.023.042-.081.156-.147.118s0-.152.014-.193.083-.134.138-.077l.064-.083a.865.865 0 0 1-.21-.169c-.046-.057-.1-.172-.055-.243.027-.04.069.007.1.031a.527.527 0 0 1 .171.323l.079-.045-.018.056c.067-.007.067-.112 0-.105" transform="translate(-215.403 -43.953)" style="fill:#b7e2e1"/>
                <path data-name="Path 17172" d="M233.5 50.191a1.231 1.231 0 0 0 .619 1.465l.678.515a1.186 1.186 0 0 0 .565.285.408.408 0 0 0 .465-.333.6.6 0 0 0-.252-.419l-.614-.566 1.448-.007.035-.7-1.176-.09 1.121-.228a.592.592 0 0 0 .28-.11.4.4 0 0 0 .112-.339 1.171 1.171 0 0 0-.114-.351l-1.178.333a.285.285 0 0 1-.159.014.1.1 0 0 1-.073-.123l.969-.506a.6.6 0 0 0 .272-.22.208.208 0 0 0-.09-.3 1.634 1.634 0 0 0-.514.1q-.277.056-.553.116-.531.117-1.058.253c-.217.056-.534.076-.645.3a3.123 3.123 0 0 0-.138.9" transform="translate(-224.376 -41.742)" style="fill:#a3cecc"/>
                <path data-name="Path 17173" d="M223.714 33.187a28.252 28.252 0 0 1 3.838.268.208.208 0 0 0 .156-.367 2.6 2.6 0 0 0-.436-.274 2.668 2.668 0 0 1-.882-.585 4.9 4.9 0 0 1-.495-1.066 2.57 2.57 0 0 0-1.645-1.288 4.657 4.657 0 0 0-2.134-.016 4.454 4.454 0 0 0-2.422 1.192 2.4 2.4 0 0 0-.559 2.528 1.354 1.354 0 0 0 .219.353c.135.153.192.083.363.011a8.543 8.543 0 0 1 .925-.328 10.637 10.637 0 0 1 1.947-.367c.374-.037.75-.057 1.125-.063" transform="translate(-214.054 -28.373)" style="fill:#a11211"/>
                <path data-name="Path 17174" d="M226.866 32.793a5.5 5.5 0 0 0-1.227-1.733 2.36 2.36 0 0 0-1.971-.609 2.284 2.284 0 0 0-1.624 1.667 1.124 1.124 0 0 1-.293.624c-.254.2-.668.11-.9.34-.16.161-.169.428-.323.6a1.337 1.337 0 0 1-.267.189.439.439 0 0 0-.207.245c-.13.535.831 0 .984-.064q.677-.269 1.374-.482a18 18 0 0 1 2.842-.625q.408-.056.818-.093a3.825 3.825 0 0 1 .79-.053" transform="translate(-214.818 -28.849)" style="fill:#ca0007"/>
                <path data-name="Path 17175" d="m222.838 43.874-.4.054a1.987 1.987 0 0 0-.145-.8.778.778 0 0 0-.628-.47.746.746 0 0 0-.674.466 1.464 1.464 0 0 0-.059.856c.052.286.147.562.2.848a1.467 1.467 0 0 1-.058.856 1.6 1.6 0 0 0-.5-1.126c.059.009.094-.075.07-.13a.544.544 0 0 0-.119-.134.642.642 0 0 1-.123-.391l-.059-.677a.863.863 0 0 1 .049-.481.827.827 0 0 1 .438-.328 8.444 8.444 0 0 1 1.859-.552q.243-.042.489-.071c.15-.017.252-.054.21.121-.073.3-.266.591-.353.893a5.068 5.068 0 0 0-.19 1.069" transform="translate(-215.017 -36.942)" style="fill:#2d1416"/>
                <path data-name="Path 17176" d="m239.232 44.934.423.075c.092.016.2.021.241-.082a.146.146 0 0 0-.068-.192c-.078-.024-.222.043-.3.068s-.244.142-.3.132" transform="translate(-228.483 -39.046)" style="fill:#e5e2da"/>
                <path data-name="Path 17177" d="M239.618 42.913a.612.612 0 0 0-.331-.149.717.717 0 0 0-.332 0 1.136 1.136 0 0 0-.528.359.735.735 0 0 1 .541-.248 1.65 1.65 0 0 1 .285 0 .788.788 0 0 1 .15.038c.058.02.11.053.167.074s.077-.048.047-.081" transform="translate(-227.909 -37.633)" style="fill:#2d1416"/>
                <path data-name="Path 17178" d="M239.915 43.982a1.269 1.269 0 0 0-.153.022.254.254 0 0 0 .109-.188c0-.028-.041-.028-.044 0v.01a.225.225 0 0 1-.127.174.013.013 0 0 0-.007.015 4.082 4.082 0 0 0-.23.065 3.922 3.922 0 0 0-.436.164.032.032 0 0 0 0 .054.476.476 0 0 0 .189.043l.241.016c.071 0 .143.008.214.015a.013.013 0 0 0 .02 0 .211.211 0 0 1 .106.037c.024.018.039.045.064.062a.009.009 0 0 0 .014-.006c.011-.05-.032-.1-.071-.12a.22.22 0 0 0-.076-.028.361.361 0 0 0 .022-.264 2.46 2.46 0 0 0 .166-.053c.012 0 .011-.024 0-.023m-.232.1a.3.3 0 0 1-.007.086.241.241 0 0 1-.015.043c-.034 0-.044-.034-.044-.068l.03-.052.036-.01m-.355.213a1.365 1.365 0 0 1-.2-.018c.118-.05.238-.1.359-.137l.035-.011a.2.2 0 0 0-.005.156.162.162 0 0 0 .016.026l-.207-.016" transform="translate(-228.327 -38.38)" style="fill:#2d1416"/>
                <path data-name="Path 17179" d="m228.94 48.051-.044.076-1.7-.857c-.047-.024-.174-.1-.115-.171.045-.054.191.049.235.07.187.089.372.183.556.279.091.047 1.075.586 1.065.6" transform="translate(-219.819 -40.723)" style="fill:#b7e2e1"/>
                <path data-name="Path 17180" d="m222.376 53.2 2.347.949.66.267a.08.08 0 0 0 .1-.055.081.081 0 0 0-.055-.1l-2.347-.949-.66-.267a.079.079 0 0 0-.1.055.08.08 0 0 0 .055.1" transform="translate(-216.435 -44.971)" style="fill:#b7e2e1"/>
                <path data-name="Path 17181" d="M224.022 46.152a.339.339 0 0 0-.4-.15.5.5 0 0 0-.308.318 1 1 0 0 0-.034.454 2.041 2.041 0 0 0 .323.885c.066.1.174.206.289.171.279-.083.131-.605.068-.786-.1-.3.2-.61.057-.891" transform="translate(-217.116 -39.942)" style="fill:#c48d69"/>
                <path data-name="Path 17182" d="M219.467 59.931a2.018 2.018 0 0 0 .206.722 1.972 1.972 0 0 1 .2.723.677.677 0 0 1-.335.631h.783l.371 3.154-6.365-.255c-.069-.807-.326-1.588-.416-2.393a2.856 2.856 0 0 1 .575-2.283c.328-.349.786-.566 1.078-.946a2.982 2.982 0 0 0 .41-.878c.041-.12.123-.588.241-.638.152-.066.293.193.366.284a5.519 5.519 0 0 0 1.8 1.465c.095.048 1.088.409 1.088.415" transform="translate(-210.429 -48.324)" style="fill:#a11211"/>
                <path data-name="Path 17183" d="M215.187 68.035a7.945 7.945 0 0 0 .658 2.547 12.372 12.372 0 0 0 3.455.1 6.277 6.277 0 0 0-.4-2.342c-.112-.285-.251-.56-.389-.834a4.022 4.022 0 0 0-.4-.685 2.067 2.067 0 0 0-1.62-.756 1.117 1.117 0 0 0-1.152.7 2.419 2.419 0 0 0-.15 1.268" transform="translate(-211.342 -54.242)" style="fill:#ca0007"/>
                <path data-name="Path 17184" d="M264.838 79.07a.5.5 0 0 1-.308-.635l1.584-4.558a.5.5 0 1 1 .943.327l-1.584 4.559a.5.5 0 0 1-.635.308" transform="translate(-246.481 -59.567)" style="fill:#0b0c0c"/>
            </g>
        </g>
        <g data-name="Group 17072">
            <g data-name="Group 17071" style="clip-path:url(#vm8xdys9ja)">
                <g data-name="Group 17070" style="mix-blend-mode:multiply;isolation:isolate">
                    <g data-name="Group 17069">
                        <g data-name="Group 17068" style="clip-path:url(#3gqhk140ke)" transform="translate(58.529 17.449)">
                            <path data-name="Path 17186" d="m204.022 60.641 19.321.037a1.136 1.136 0 0 1 1.064.709l1.753 4.18c.156.373.442.717.221 1.049a1.126 1.126 0 0 1-.963.516h-6.664a1.117 1.117 0 0 1-.827-.348l-2.685-2.746a1.118 1.118 0 0 0-.827-.348h-10.291a1.149 1.149 0 0 1-.714-.248v-2.189a.613.613 0 0 1 .612-.612" transform="translate(-203.41 -60.641)" style="fill:#cbd7d7;fill-rule:evenodd"/>
                        </g>
                    </g>
                </g>
            </g>
        </g>
    </g>
</svg>
